<svg width="104" height="23" viewBox="0 0 104 23" fill="none" xmlns="http://www.w3.org/2000/svg">
<path d="M9.096 18.096C7.8 18.096 6.592 17.888 5.472 17.472C4.368 17.04 3.408 16.432 2.592 15.648C1.776 14.864 1.136 13.944 0.672 12.888C0.224 11.832 1.49012e-07 10.672 1.49012e-07 9.408C1.49012e-07 8.144 0.224 6.984 0.672 5.928C1.136 4.872 1.776 3.952 2.592 3.168C3.424 2.384 4.392 1.784 5.496 1.368C6.6 0.936001 7.808 0.720001 9.12 0.720001C10.576 0.720001 11.888 0.976001 13.056 1.488C14.24 1.984 15.232 2.72 16.032 3.696L13.536 6C12.96 5.344 12.32 4.856 11.616 4.536C10.912 4.2 10.144 4.032 9.312 4.032C8.528 4.032 7.808 4.16 7.152 4.416C6.496 4.672 5.928 5.04 5.448 5.52C4.968 6 4.592 6.568 4.32 7.224C4.064 7.88 3.936 8.608 3.936 9.408C3.936 10.208 4.064 10.936 4.32 11.592C4.592 12.248 4.968 12.816 5.448 13.296C5.928 13.776 6.496 14.144 7.152 14.4C7.808 14.656 8.528 14.784 9.312 14.784C10.144 14.784 10.912 14.624 11.616 14.304C12.32 13.968 12.96 13.464 13.536 12.792L16.032 15.096C15.232 16.072 14.24 16.816 13.056 17.328C11.888 17.84 10.568 18.096 9.096 18.096ZM19.8922 22.656C19.2202 22.656 18.5562 22.552 17.9002 22.344C17.2442 22.136 16.7082 21.848 16.2922 21.48L17.6602 18.816C17.9482 19.072 18.2762 19.272 18.6442 19.416C19.0282 19.56 19.4042 19.632 19.7722 19.632C20.3002 19.632 20.7162 19.504 21.0202 19.248C21.3402 19.008 21.6282 18.6 21.8842 18.024L22.5562 16.44L22.8442 16.032L27.4762 4.896H31.0762L25.2442 18.6C24.8282 19.64 24.3482 20.456 23.8042 21.048C23.2762 21.64 22.6842 22.056 22.0282 22.296C21.3882 22.536 20.6762 22.656 19.8922 22.656ZM22.1002 18.312L16.3402 4.896H20.2042L24.6682 15.696L22.1002 18.312ZM40.1026 18C38.9666 18 37.9906 17.76 37.1746 17.28C36.3586 16.8 35.7346 16.072 35.3026 15.096C34.8706 14.104 34.6546 12.856 34.6546 11.352C34.6546 9.832 34.8786 8.584 35.3266 7.608C35.7906 6.632 36.4306 5.904 37.2466 5.424C38.0626 4.944 39.0146 4.704 40.1026 4.704C41.3186 4.704 42.4066 4.976 43.3666 5.52C44.3426 6.064 45.1106 6.832 45.6706 7.824C46.2466 8.816 46.5346 9.992 46.5346 11.352C46.5346 12.696 46.2466 13.864 45.6706 14.856C45.1106 15.848 44.3426 16.624 43.3666 17.184C42.4066 17.728 41.3186 18 40.1026 18ZM32.4706 17.808V4.76837e-07H36.2146V7.512L35.9746 11.328L36.0466 15.168V17.808H32.4706ZM39.4546 14.928C40.0786 14.928 40.6306 14.784 41.1106 14.496C41.6066 14.208 41.9986 13.8 42.2866 13.272C42.5906 12.728 42.7426 12.088 42.7426 11.352C42.7426 10.6 42.5906 9.96 42.2866 9.432C41.9986 8.904 41.6066 8.496 41.1106 8.208C40.6306 7.92 40.0786 7.776 39.4546 7.776C38.8306 7.776 38.2706 7.92 37.7746 8.208C37.2786 8.496 36.8866 8.904 36.5986 9.432C36.3106 9.96 36.1666 10.6 36.1666 11.352C36.1666 12.088 36.3106 12.728 36.5986 13.272C36.8866 13.8 37.2786 14.208 37.7746 14.496C38.2706 14.784 38.8306 14.928 39.4546 14.928ZM55.3156 18C53.8436 18 52.5476 17.712 51.4276 17.136C50.3236 16.56 49.4676 15.776 48.8596 14.784C48.2516 13.776 47.9476 12.632 47.9476 11.352C47.9476 10.056 48.2436 8.912 48.8356 7.92C49.4436 6.912 50.2676 6.128 51.3076 5.568C52.3476 4.992 53.5236 4.704 54.8356 4.704C56.0996 4.704 57.2356 4.976 58.2436 5.52C59.2676 6.048 60.0756 6.816 60.6676 7.824C61.2596 8.816 61.5556 10.008 61.5556 11.4C61.5556 11.544 61.5476 11.712 61.5316 11.904C61.5156 12.08 61.4996 12.248 61.4836 12.408H50.9956V10.224H59.5156L58.0756 10.872C58.0756 10.2 57.9396 9.616 57.6676 9.12C57.3956 8.624 57.0196 8.24 56.5396 7.968C56.0596 7.68 55.4996 7.536 54.8596 7.536C54.2196 7.536 53.6516 7.68 53.1556 7.968C52.6756 8.24 52.2996 8.632 52.0276 9.144C51.7556 9.64 51.6196 10.232 51.6196 10.92V11.496C51.6196 12.2 51.7716 12.824 52.0756 13.368C52.3956 13.896 52.8356 14.304 53.3956 14.592C53.9716 14.864 54.6436 15 55.4116 15C56.0996 15 56.6996 14.896 57.2116 14.688C57.7396 14.48 58.2196 14.168 58.6516 13.752L60.6436 15.912C60.0516 16.584 59.3076 17.104 58.4116 17.472C57.5156 17.824 56.4836 18 55.3156 18ZM63.9149 17.808V4.896H67.4909V8.544L66.9869 7.488C67.3709 6.576 67.9869 5.888 68.8349 5.424C69.6829 4.944 70.7149 4.704 71.9309 4.704V8.16C71.7709 8.144 71.6269 8.136 71.4989 8.136C71.3709 8.12 71.2349 8.112 71.0909 8.112C70.0669 8.112 69.2349 8.408 68.5949 9C67.9709 9.576 67.6589 10.48 67.6589 11.712V17.808H63.9149ZM75.2991 18C74.6591 18 74.1071 17.784 73.6431 17.352C73.1951 16.904 72.9711 16.336 72.9711 15.648C72.9711 14.96 73.1951 14.408 73.6431 13.992C74.1071 13.56 74.6591 13.344 75.2991 13.344C75.9551 13.344 76.5071 13.56 76.9551 13.992C77.4031 14.408 77.6271 14.96 77.6271 15.648C77.6271 16.336 77.4031 16.904 76.9551 17.352C76.5071 17.784 75.9551 18 75.2991 18ZM78.8605 17.808L86.3485 1.008H90.1885L97.7005 17.808H93.6205L87.4765 2.976H89.0125L82.8445 17.808H78.8605ZM82.6045 14.208L83.6365 11.256H92.2765L93.3325 14.208H82.6045ZM99.3102 17.808V1.008H103.198V17.808H99.3102Z" fill="url(#paint0_linear_1_22)"/>
<defs>
<linearGradient id="paint0_linear_1_22" x1="-0.936" y1="9.308" x2="106.064" y2="9.308" gradientUnits="userSpaceOnUse">
<stop stop-color="#F0B71F"/>
<stop offset="1" stop-color="#E03609"/>
</linearGradient>
</defs>
</svg>
